<?xml version="1.0" encoding="iso-8859-1"?>
<!-- Uploaded to: SVG Repo, www.svgrepo.com, Generator: SVG Repo Mixer Tools -->
<svg height="800px" width="800px" version="1.1" id="Capa_1" xmlns="http://www.w3.org/2000/svg" xmlns:xlink="http://www.w3.org/1999/xlink" 
	 viewBox="0 0 16.939 16.939" xml:space="preserve">
<g>
	<path style="fill:#030104;" d="M14.464,6.649l-0.033-0.052c0.002-0.106,0.004-0.213,0-0.323l0.005-0.077l-0.141-0.788
		c0-1.383-0.904-5.233-3.208-4.907c0,0-2.366-1.292-5.267,0.27C3.007,1.916,2.611,4.026,2.611,5.409v1.042
		C2.605,6.471,2.6,6.487,2.594,6.502c-0.091,0.261-0.099,0.28,0.272,2.24C2.771,8.771,2.687,8.829,2.622,8.913
		c-0.316,0.419-0.04,1.525,0.045,1.821c0.08,0.52,0.281,0.818,0.465,0.987c0.407,2.921,2.918,5.218,5.125,5.218
		c2.581,0,5.022-2.53,5.453-5.214c0.183-0.167,0.385-0.461,0.46-0.958c0.093-0.33,0.369-1.438,0.052-1.856
		c-0.039-0.051-0.084-0.092-0.136-0.123c0.138-0.476,0.319-1.255,0.344-2.121C14.442,6.66,14.453,6.655,14.464,6.649z M8.29,12.308
		c-0.653,0-1.097-0.48-1.097-1.121c0-0.653,0.457-1.121,1.097-1.121c0.665,0,1.097,0.468,1.109,1.121
		C9.399,11.827,8.954,12.308,8.29,12.308z M9.781,7.725C9.324,8.23,9.139,8.711,9.152,9.265v0.222H7.514l-0.012-0.32
		C7.465,8.539,7.673,7.898,8.228,7.233c0.395-0.468,0.714-0.862,0.714-1.281c0-0.431-0.283-0.714-0.898-0.739
		c-0.406,0-0.899,0.148-1.22,0.37l-0.42-1.344C6.848,3.98,7.588,3.735,8.461,3.735c1.627,0,2.365,0.899,2.365,1.92
		C10.827,6.592,10.247,7.208,9.781,7.725z"/>
</g>
</svg>